STARTFONT 2.1
COMMENT Copyright (C) 1990-1991 EWT Consulting
COMMENT Portions Copyright (C) 1994-1995 Cronyx Ltd.
COMMENT Modified by Serge Vakulenko, <vak@cronyx.ru>
COMMENT Encoding changed to CP1251 by Rabinovich Moisei, <moisei@cs.bgu.ac.il>,$
COMMENT This software may be used, modified, copied, distributed, and sold,
COMMENT in both source and binary form provided that the copyright
COMMENT and these terms are retained. Under no circumstances is the author
COMMENT responsible for the proper functioning of this software, nor does
COMMENT the author assume any responsibility for damages incurred with its use.
FONT -Cronyx-Times-Medium-R-Normal--14-140-75-75-P-74-RAWIN-R
SIZE 14 96 96
FONTBOUNDINGBOX 17 21 0 -5
STARTPROPERTIES 19
DEFAULT_CHAR 32
FONT_ASCENT 16
FONT_DESCENT 5
SPACING "P"
FONTNAME_REGISTRY ""
FOUNDRY "Cronyx"
FAMILY_NAME "Times"
WEIGHT_NAME "Medium"
SLANT "R"
SETWIDTH_NAME "Normal"
ADD_STYLE_NAME ""
AVERAGE_WIDTH 74
CHARSET_REGISTRY "RAWIN"
CHARSET_ENCODING "R"
PIXEL_SIZE 14
POINT_SIZE 140
RESOLUTION_X 75
RESOLUTION_Y 75
COPYRIGHT "Copyright (C) 1990, 1991 EWT Consulting, Portions Copyright (C) 1994 Cronyx Ltd."
ENDPROPERTIES
CHARS 224
STARTCHAR space
ENCODING 32
SWIDTH 190 0
DWIDTH 4 0
BBX 4 21 0 -5
BITMAP
00
00
00
00
00
00
00
00
00
00
00
00
00
00
00
00
00
00
00
00
00
ENDCHAR
STARTCHAR exclam
ENCODING 33
SWIDTH 190 0
DWIDTH 4 0
BBX 4 21 0 -5
BITMAP
00
00
00
60
60
60
60
60
60
60
60
60
00
00
60
60
00
00
00
00
00
ENDCHAR
STARTCHAR quotedbl
ENCODING 34
SWIDTH 380 0
DWIDTH 8 0
BBX 8 21 0 -5
BITMAP
00
00
00
66
66
66
66
00
00
00
00
00
00
00
00
00
00
00
00
00
00
ENDCHAR
STARTCHAR numbersign
ENCODING 35
SWIDTH 428 0
DWIDTH 9 0
BBX 9 21 0 -5
BITMAP
0000
0000
1b00
1b00
1b00
1b00
7f80
3600
3600
3600
3600
ff00
6c00
6c00
6c00
6c00
0000
0000
0000
0000
0000
ENDCHAR
STARTCHAR dollar
ENCODING 36
SWIDTH 428 0
DWIDTH 9 0
BBX 9 21 0 -5
BITMAP
0000
0800
0800
1e00
2b00
6900
6900
7800
3c00
1e00
0e00
0b00
4b00
4b00
6a00
3c00
0800
0800
0000
0000
0000
ENDCHAR
STARTCHAR percent
ENCODING 37
SWIDTH 714 0
DWIDTH 15 0
BBX 15 21 0 -5
BITMAP
0000
0000
0000
1c18
37f0
6260
6260
64c0
3980
0180
0338
0664
06c4
0cc4
18c8
1870
0000
0000
0000
0000
0000
ENDCHAR
STARTCHAR ampersand
ENCODING 38
SWIDTH 666 0
DWIDTH 14 0
BBX 14 21 0 -5
BITMAP
0000
0000
0000
0f00
1980
1880
1980
0f00
0e38
1e10
3310
61a0
60c0
60c0
31e4
1f38
0000
0000
0000
0000
0000
ENDCHAR
STARTCHAR quoteright
ENCODING 39
SWIDTH 190 0
DWIDTH 4 0
BBX 4 21 0 -5
BITMAP
00
00
00
60
60
60
60
00
00
00
00
00
00
00
00
00
00
00
00
00
00
ENDCHAR
STARTCHAR parenleft
ENCODING 40
SWIDTH 285 0
DWIDTH 6 0
BBX 6 21 0 -5
BITMAP
00
08
18
10
30
30
20
60
60
60
60
60
60
60
20
30
30
10
18
08
00
ENDCHAR
STARTCHAR parenright
ENCODING 41
SWIDTH 285 0
DWIDTH 6 0
BBX 6 21 0 -5
BITMAP
00
40
60
20
30
30
10
18
18
18
18
18
18
18
10
30
30
20
60
40
00
ENDCHAR
STARTCHAR asterisk
ENCODING 42
SWIDTH 428 0
DWIDTH 9 0
BBX 9 21 0 -5
BITMAP
0000
0000
0800
2a00
3e00
1c00
3e00
2a00
0800
0000
0000
0000
0000
0000
0000
0000
0000
0000
0000
0000
0000
ENDCHAR
STARTCHAR plus
ENCODING 43
SWIDTH 476 0
DWIDTH 10 0
BBX 10 21 0 -5
BITMAP
0000
0000
0000
0000
0000
0c00
0c00
0c00
7f80
7f80
0c00
0c00
0c00
0000
0000
0000
0000
0000
0000
0000
0000
ENDCHAR
STARTCHAR comma
ENCODING 44
SWIDTH 190 0
DWIDTH 4 0
BBX 4 21 0 -5
BITMAP
00
00
00
00
00
00
00
00
00
00
00
00
00
00
60
60
20
20
40
00
00
ENDCHAR
STARTCHAR minus
ENCODING 45
SWIDTH 285 0
DWIDTH 6 0
BBX 6 21 0 -5
BITMAP
00
00
00
00
00
00
00
00
78
78
00
00
00
00
00
00
00
00
00
00
00
ENDCHAR
STARTCHAR period
ENCODING 46
SWIDTH 190 0
DWIDTH 4 0
BBX 4 21 0 -5
BITMAP
00
00
00
00
00
00
00
00
00
00
00
00
00
00
60
60
00
00
00
00
00
ENDCHAR
STARTCHAR slash
ENCODING 47
SWIDTH 238 0
DWIDTH 5 0
BBX 5 21 0 -5
BITMAP
00
00
18
18
18
18
30
30
30
30
60
60
60
60
c0
c0
c0
c0
00
00
00
ENDCHAR
STARTCHAR zero
ENCODING 48
SWIDTH 428 0
DWIDTH 9 0
BBX 9 21 0 -5
BITMAP
0000
0000
0000
1c00
3600
6300
6300
6300
6300
6300
6300
6300
6300
6300
3600
1c00
0000
0000
0000
0000
0000
ENDCHAR
STARTCHAR one
ENCODING 49
SWIDTH 428 0
DWIDTH 9 0
BBX 9 21 0 -5
BITMAP
0000
0000
0000
0400
0c00
3c00
0c00
0c00
0c00
0c00
0c00
0c00
0c00
0c00
0c00
3f00
0000
0000
0000
0000
0000
ENDCHAR
STARTCHAR two
ENCODING 50
SWIDTH 428 0
DWIDTH 9 0
BBX 9 21 0 -5
BITMAP
0000
0000
0000
1c00
3e00
4700
0300
0300
0600
0400
0c00
1800
1000
2100
7f00
7e00
0000
0000
0000
0000
0000
ENDCHAR
STARTCHAR three
ENCODING 51
SWIDTH 428 0
DWIDTH 9 0
BBX 9 21 0 -5
BITMAP
0000
0000
0000
1c00
2600
4300
0300
0200
0400
1e00
0700
0300
0300
0300
6600
3c00
0000
0000
0000
0000
0000
ENDCHAR
STARTCHAR four
ENCODING 52
SWIDTH 428 0
DWIDTH 9 0
BBX 9 21 0 -5
BITMAP
0000
0000
0000
0600
0600
0e00
0e00
1600
1600
2600
2600
7f00
7f00
0600
0600
0600
0000
0000
0000
0000
0000
ENDCHAR
STARTCHAR five
ENCODING 53
SWIDTH 428 0
DWIDTH 9 0
BBX 9 21 0 -5
BITMAP
0000
0000
0000
1f00
1f00
2000
2000
7c00
7e00
0700
0300
0300
0300
0300
6600
3c00
0000
0000
0000
0000
0000
ENDCHAR
STARTCHAR six
ENCODING 54
SWIDTH 428 0
DWIDTH 9 0
BBX 9 21 0 -5
BITMAP
0000
0000
0000
0e00
1800
3000
3000
6000
6c00
7600
6300
6300
6300
6300
3600
1c00
0000
0000
0000
0000
0000
ENDCHAR
STARTCHAR seven
ENCODING 55
SWIDTH 428 0
DWIDTH 9 0
BBX 9 21 0 -5
BITMAP
0000
0000
0000
3f00
3f00
4600
0600
0c00
0c00
0c00
1800
1800
1800
3000
3000
3000
0000
0000
0000
0000
0000
ENDCHAR
STARTCHAR eight
ENCODING 56
SWIDTH 428 0
DWIDTH 9 0
BBX 9 21 0 -5
BITMAP
0000
0000
0000
1c00
3600
6300
6300
7200
3c00
1e00
2700
6300
6300
6300
3600
1c00
0000
0000
0000
0000
0000
ENDCHAR
STARTCHAR nine
ENCODING 57
SWIDTH 428 0
DWIDTH 9 0
BBX 9 21 0 -5
BITMAP
0000
0000
0000
1c00
3600
6300
6300
6300
6300
3700
1b00
0300
0200
0600
0c00
3800
0000
0000
0000
0000
0000
ENDCHAR
STARTCHAR colon
ENCODING 58
SWIDTH 238 0
DWIDTH 5 0
BBX 5 21 0 -5
BITMAP
00
00
00
00
00
00
00
60
60
00
00
00
00
00
60
60
00
00
00
00
00
ENDCHAR
STARTCHAR semicolon
ENCODING 59
SWIDTH 238 0
DWIDTH 5 0
BBX 5 21 0 -5
BITMAP
00
00
00
00
00
00
00
60
60
00
00
00
00
00
60
60
20
20
40
00
00
ENDCHAR
STARTCHAR less
ENCODING 60
SWIDTH 476 0
DWIDTH 10 0
BBX 10 21 0 -5
BITMAP
0000
0000
0000
0000
0000
0180
0700
0e00
3800
7000
3800
0e00
0700
0180
0000
0000
0000
0000
0000
0000
0000
ENDCHAR
STARTCHAR equal
ENCODING 61
SWIDTH 476 0
DWIDTH 10 0
BBX 10 21 0 -5
BITMAP
0000
0000
0000
0000
0000
0000
0000
7f80
7f80
0000
0000
7f80
7f80
0000
0000
0000
0000
0000
0000
0000
0000
ENDCHAR
STARTCHAR greater
ENCODING 62
SWIDTH 476 0
DWIDTH 10 0
BBX 10 21 0 -5
BITMAP
0000
0000
0000
0000
0000
6000
3800
1c00
0700
0380
0700
1c00
3800
6000
0000
0000
0000
0000
0000
0000
0000
ENDCHAR
STARTCHAR question
ENCODING 63
SWIDTH 380 0
DWIDTH 8 0
BBX 8 21 0 -5
BITMAP
00
00
00
3c
46
66
66
06
0c
0c
18
10
10
00
18
18
00
00
00
00
00
ENDCHAR
STARTCHAR at
ENCODING 64
SWIDTH 809 0
DWIDTH 17 0
BBX 17 21 0 -5
BITMAP
000000
000000
000000
03e000
0e3800
180c00
300600
31b600
637300
663300
662300
666300
637600
319c00
300000
180000
0e1800
03e000
000000
000000
000000
ENDCHAR
STARTCHAR A
ENCODING 65
SWIDTH 571 0
DWIDTH 12 0
BBX 12 21 0 -5
BITMAP
0000
0000
0000
0400
0600
0e00
0b00
0b00
1300
1180
2180
3fc0
20c0
40c0
4060
e0f0
0000
0000
0000
0000
0000
ENDCHAR
STARTCHAR B
ENCODING 66
SWIDTH 619 0
DWIDTH 13 0
BBX 13 21 0 -5
BITMAP
0000
0000
0000
7f00
30c0
3060
3060
3060
30c0
3fc0
3060
3030
3030
3030
3060
7f80
0000
0000
0000
0000
0000
ENDCHAR
STARTCHAR C
ENCODING 67
SWIDTH 619 0
DWIDTH 13 0
BBX 13 21 0 -5
BITMAP
0000
0000
0000
07a0
1c60
3020
3000
6000
6000
6000
6000
6000
3000
3010
1c60
0780
0000
0000
0000
0000
0000
ENDCHAR
STARTCHAR D
ENCODING 68
SWIDTH 666 0
DWIDTH 14 0
BBX 14 21 0 -5
BITMAP
0000
0000
0000
7f80
3060
3030
3030
3018
3018
3018
3018
3018
3030
3030
3060
7f80
0000
0000
0000
0000
0000
ENDCHAR
STARTCHAR E
ENCODING 69
SWIDTH 571 0
DWIDTH 12 0
BBX 12 21 0 -5
BITMAP
0000
0000
0000
7fc0
3040
3000
3000
3000
3080
3f80
3080
3000
3000
3000
3020
7fc0
0000
0000
0000
0000
0000
ENDCHAR
STARTCHAR F
ENCODING 70
SWIDTH 523 0
DWIDTH 11 0
BBX 11 21 0 -5
BITMAP
0000
0000
0000
7fc0
3040
3000
3000
3000
3080
3f80
3080
3000
3000
3000
3000
7800
0000
0000
0000
0000
0000
ENDCHAR
STARTCHAR G
ENCODING 71
SWIDTH 666 0
DWIDTH 14 0
BBX 14 21 0 -5
BITMAP
0000
0000
0000
07a0
1c60
3020
3000
6000
6000
6000
6078
6030
3030
3030
1c70
07c0
0000
0000
0000
0000
0000
ENDCHAR
STARTCHAR H
ENCODING 72
SWIDTH 666 0
DWIDTH 14 0
BBX 14 21 0 -5
BITMAP
0000
0000
0000
7878
3030
3030
3030
3030
3030
3ff0
3030
3030
3030
3030
3030
7878
0000
0000
0000
0000
0000
ENDCHAR
STARTCHAR I
ENCODING 73
SWIDTH 285 0
DWIDTH 6 0
BBX 6 21 0 -5
BITMAP
00
00
00
78
30
30
30
30
30
30
30
30
30
30
30
78
00
00
00
00
00
ENDCHAR
STARTCHAR J
ENCODING 74
SWIDTH 380 0
DWIDTH 8 0
BBX 8 21 0 -5
BITMAP
00
00
00
1e
0c
0c
0c
0c
0c
0c
0c
0c
0c
6c
6c
38
00
00
00
00
00
ENDCHAR
STARTCHAR K
ENCODING 75
SWIDTH 619 0
DWIDTH 13 0
BBX 13 21 0 -5
BITMAP
0000
0000
0000
79f0
30c0
3180
3300
3600
3e00
3b00
3380
3180
30c0
30e0
3060
79f8
0000
0000
0000
0000
0000
ENDCHAR
STARTCHAR L
ENCODING 76
SWIDTH 571 0
DWIDTH 12 0
BBX 12 21 0 -5
BITMAP
0000
0000
0000
7800
3000
3000
3000
3000
3000
3000
3000
3000
3000
3000
3020
7fc0
0000
0000
0000
0000
0000
ENDCHAR
STARTCHAR M
ENCODING 77
SWIDTH 761 0
DWIDTH 16 0
BBX 16 21 0 -5
BITMAP
0000
0000
0000
781e
381c
3c3c
2c2c
2c2c
264c
264c
264c
238c
238c
238c
210c
711e
0000
0000
0000
0000
0000
ENDCHAR
STARTCHAR N
ENCODING 78
SWIDTH 666 0
DWIDTH 14 0
BBX 14 21 0 -5
BITMAP
0000
0000
0000
7838
3810
3c10
2e10
2710
2310
2390
21d0
20f0
2070
2070
2030
7010
0000
0000
0000
0000
0000
ENDCHAR
STARTCHAR O
ENCODING 79
SWIDTH 666 0
DWIDTH 14 0
BBX 14 21 0 -5
BITMAP
0000
0000
0000
0780
1860
3030
3030
6018
6018
6018
6018
6018
3030
3030
1860
0780
0000
0000
0000
0000
0000
ENDCHAR
STARTCHAR P
ENCODING 80
SWIDTH 523 0
DWIDTH 11 0
BBX 11 21 0 -5
BITMAP
0000
0000
0000
7f00
30c0
3060
3060
3060
30c0
3f00
3000
3000
3000
3000
3000
7800
0000
0000
0000
0000
0000
ENDCHAR
STARTCHAR Q
ENCODING 81
SWIDTH 666 0
DWIDTH 14 0
BBX 14 21 0 -5
BITMAP
0000
0000
0000
0780
1860
3030
3030
6018
6018
6018
6018
6018
3030
3030
1860
0780
0380
00c0
0030
0000
0000
ENDCHAR
STARTCHAR R
ENCODING 82
SWIDTH 571 0
DWIDTH 12 0
BBX 12 21 0 -5
BITMAP
0000
0000
0000
7f80
30c0
3060
3060
3060
30c0
3f80
3180
30c0
30c0
3060
3060
7830
0000
0000
0000
0000
0000
ENDCHAR
STARTCHAR S
ENCODING 83
SWIDTH 476 0
DWIDTH 10 0
BBX 10 21 0 -5
BITMAP
0000
0000
0000
1d00
3300
6100
6100
7000
3800
1e00
0700
0380
4180
4180
6300
5e00
0000
0000
0000
0000
0000
ENDCHAR
STARTCHAR T
ENCODING 84
SWIDTH 571 0
DWIDTH 12 0
BBX 12 21 0 -5
BITMAP
0000
0000
0000
7fe0
4620
0600
0600
0600
0600
0600
0600
0600
0600
0600
0600
0f00
0000
0000
0000
0000
0000
ENDCHAR
STARTCHAR U
ENCODING 85
SWIDTH 666 0
DWIDTH 14 0
BBX 14 21 0 -5
BITMAP
0000
0000
0000
7838
3010
3010
3010
3010
3010
3010
3010
3010
3010
1820
1c60
0780
0000
0000
0000
0000
0000
ENDCHAR
STARTCHAR V
ENCODING 86
SWIDTH 571 0
DWIDTH 12 0
BBX 12 21 0 -5
BITMAP
0000
0000
0000
f0f0
6060
6040
3040
3080
3080
1900
1900
0e00
0e00
0e00
0400
0400
0000
0000
0000
0000
0000
ENDCHAR
STARTCHAR W
ENCODING 87
SWIDTH 809 0
DWIDTH 17 0
BBX 17 21 0 -5
BITMAP
000000
000000
000000
f3c380
618100
618100
30c200
30c200
30c200
196400
196400
0e3800
0e3800
0e3800
041000
041000
000000
000000
000000
000000
000000
ENDCHAR
STARTCHAR X
ENCODING 88
SWIDTH 571 0
DWIDTH 12 0
BBX 12 21 0 -5
BITMAP
0000
0000
0000
f8f0
3060
1840
1c80
0d00
0700
0700
0b00
0980
11c0
20c0
6060
f0f0
0000
0000
0000
0000
0000
ENDCHAR
STARTCHAR Y
ENCODING 89
SWIDTH 571 0
DWIDTH 12 0
BBX 12 21 0 -5
BITMAP
0000
0000
0000
f070
6020
3040
3040
1880
0d00
0d00
0600
0600
0600
0600
0600
0f00
0000
0000
0000
0000
0000
ENDCHAR
STARTCHAR Z
ENCODING 90
SWIDTH 571 0
DWIDTH 12 0
BBX 12 21 0 -5
BITMAP
0000
0000
0000
3fe0
20c0
00c0
0180
0380
0300
0600
0e00
0c00
1800
3800
3010
7fe0
0000
0000
0000
0000
0000
ENDCHAR
STARTCHAR bracketleft
ENCODING 91
SWIDTH 285 0
DWIDTH 6 0
BBX 6 21 0 -5
BITMAP
00
00
3c
30
30
30
30
30
30
30
30
30
30
30
30
30
30
30
3c
00
00
ENDCHAR
STARTCHAR backslash
ENCODING 92
SWIDTH 238 0
DWIDTH 5 0
BBX 5 21 0 -5
BITMAP
00
00
00
c0
c0
c0
60
60
60
30
30
30
18
18
18
18
00
00
00
00
00
ENDCHAR
STARTCHAR bracketright
ENCODING 93
SWIDTH 285 0
DWIDTH 6 0
BBX 6 21 0 -5
BITMAP
00
00
f0
30
30
30
30
30
30
30
30
30
30
30
30
30
30
30
f0
00
00
ENDCHAR
STARTCHAR asciicircum
ENCODING 94
SWIDTH 428 0
DWIDTH 9 0
BBX 9 21 0 -5
BITMAP
0000
0000
0800
1c00
3600
6300
0000
0000
0000
0000
0000
0000
0000
0000
0000
0000
0000
0000
0000
0000
0000
ENDCHAR
STARTCHAR underscore
ENCODING 95
SWIDTH 428 0
DWIDTH 9 0
BBX 9 21 0 -5
BITMAP
0000
0000
0000
0000
0000
0000
0000
0000
0000
0000
0000
0000
0000
0000
0000
0000
0000
ff80
0000
0000
0000
ENDCHAR
STARTCHAR quoteleft
ENCODING 96
SWIDTH 285 0
DWIDTH 6 0
BBX 6 21 0 -5
BITMAP
00
00
60
30
08
00
00
00
00
00
00
00
00
00
00
00
00
00
00
00
00
ENDCHAR
STARTCHAR a
ENCODING 97
SWIDTH 428 0
DWIDTH 9 0
BBX 9 21 0 -5
BITMAP
0000
0000
0000
0000
0000
0000
0000
1e00
6300
6300
0f00
3300
6300
6300
6f00
3b80
0000
0000
0000
0000
0000
ENDCHAR
STARTCHAR b
ENCODING 98
SWIDTH 476 0
DWIDTH 10 0
BBX 10 21 0 -5
BITMAP
0000
0000
1000
7000
3000
3000
3000
3700
3980
30c0
30c0
30c0
30c0
30c0
3180
1f00
0000
0000
0000
0000
0000
ENDCHAR
STARTCHAR c
ENCODING 99
SWIDTH 380 0
DWIDTH 8 0
BBX 8 21 0 -5
BITMAP
00
00
00
00
00
00
00
1e
33
63
60
60
60
61
33
1e
00
00
00
00
00
ENDCHAR
STARTCHAR d
ENCODING 100
SWIDTH 476 0
DWIDTH 10 0
BBX 10 21 0 -5
BITMAP
0000
0000
0080
0380
0180
0180
0180
1d80
3380
6180
6180
6180
6180
6180
3380
1ec0
0000
0000
0000
0000
0000
ENDCHAR
STARTCHAR e
ENCODING 101
SWIDTH 380 0
DWIDTH 8 0
BBX 8 21 0 -5
BITMAP
00
00
00
00
00
00
00
1c
36
63
7f
60
60
61
33
1e
00
00
00
00
00
ENDCHAR
STARTCHAR f
ENCODING 102
SWIDTH 285 0
DWIDTH 6 0
BBX 6 21 0 -5
BITMAP
00
00
1c
34
30
30
7c
30
30
30
30
30
30
30
30
78
00
00
00
00
00
ENDCHAR
STARTCHAR g
ENCODING 103
SWIDTH 476 0
DWIDTH 10 0
BBX 10 21 0 -5
BITMAP
0000
0000
0000
0000
0000
0000
0000
0e00
1bc0
3180
3180
1b00
0e00
1800
3000
3f80
61c0
60c0
6180
3f00
0000
ENDCHAR
STARTCHAR h
ENCODING 104
SWIDTH 476 0
DWIDTH 10 0
BBX 10 21 0 -5
BITMAP
0000
0000
1000
7000
3000
3000
3000
3700
3980
3180
3180
3180
3180
3180
3180
79c0
0000
0000
0000
0000
0000
ENDCHAR
STARTCHAR i
ENCODING 105
SWIDTH 238 0
DWIDTH 5 0
BBX 5 21 0 -5
BITMAP
00
00
30
30
00
00
00
30
70
30
30
30
30
30
30
78
00
00
00
00
00
ENDCHAR
STARTCHAR j
ENCODING 106
SWIDTH 190 0
DWIDTH 4 0
BBX 4 21 0 -5
BITMAP
00
00
30
30
00
00
00
30
70
30
30
30
30
30
30
30
30
30
b0
60
00
ENDCHAR
STARTCHAR k
ENCODING 107
SWIDTH 428 0
DWIDTH 9 0
BBX 9 21 0 -5
BITMAP
0000
0000
1000
7000
3000
3000
3000
3780
3200
3400
3800
3c00
3600
3600
3300
7b80
0000
0000
0000
0000
0000
ENDCHAR
STARTCHAR l
ENCODING 108
SWIDTH 238 0
DWIDTH 5 0
BBX 5 21 0 -5
BITMAP
00
00
10
70
30
30
30
30
30
30
30
30
30
30
30
78
00
00
00
00
00
ENDCHAR
STARTCHAR m
ENCODING 109
SWIDTH 619 0
DWIDTH 13 0
BBX 13 21 0 -5
BITMAP
0000
0000
0000
0000
0000
0000
0000
1660
7ff0
3330
3330
3330
3330
3330
3330
7bb8
0000
0000
0000
0000
0000
ENDCHAR
STARTCHAR n
ENCODING 110
SWIDTH 476 0
DWIDTH 10 0
BBX 10 21 0 -5
BITMAP
0000
0000
0000
0000
0000
0000
0000
3700
7980
3180
3180
3180
3180
3180
3180
79c0
0000
0000
0000
0000
0000
ENDCHAR
STARTCHAR o
ENCODING 111
SWIDTH 428 0
DWIDTH 9 0
BBX 9 21 0 -5
BITMAP
0000
0000
0000
0000
0000
0000
0000
1e00
2300
6180
6180
6180
6180
6180
3100
1e00
0000
0000
0000
0000
0000
ENDCHAR
STARTCHAR p
ENCODING 112
SWIDTH 476 0
DWIDTH 10 0
BBX 10 21 0 -5
BITMAP
0000
0000
0000
0000
0000
0000
0000
2f00
7980
30c0
30c0
30c0
30c0
30c0
3980
3700
3000
3000
3000
7800
0000
ENDCHAR
STARTCHAR q
ENCODING 113
SWIDTH 476 0
DWIDTH 10 0
BBX 10 21 0 -5
BITMAP
0000
0000
0000
0000
0000
0000
0000
1e80
3380
6180
6180
6180
6180
6180
3380
1d80
0180
0180
0180
03c0
0000
ENDCHAR
STARTCHAR r
ENCODING 114
SWIDTH 333 0
DWIDTH 7 0
BBX 7 21 0 -5
BITMAP
00
00
00
00
00
00
00
36
7e
32
30
30
30
30
30
78
00
00
00
00
00
ENDCHAR
STARTCHAR s
ENCODING 115
SWIDTH 333 0
DWIDTH 7 0
BBX 7 21 0 -5
BITMAP
00
00
00
00
00
00
00
3a
66
62
30
18
0c
46
66
7c
00
00
00
00
00
ENDCHAR
STARTCHAR t
ENCODING 116
SWIDTH 285 0
DWIDTH 6 0
BBX 6 21 0 -5
BITMAP
00
00
00
00
10
10
30
7c
30
30
30
30
30
30
34
18
00
00
00
00
00
ENDCHAR
STARTCHAR u
ENCODING 117
SWIDTH 476 0
DWIDTH 10 0
BBX 10 21 0 -5
BITMAP
0000
0000
0000
0000
0000
0000
0000
7380
3180
3180
3180
3180
3180
3180
3380
1dc0
0000
0000
0000
0000
0000
ENDCHAR
STARTCHAR v
ENCODING 118
SWIDTH 476 0
DWIDTH 10 0
BBX 10 21 0 -5
BITMAP
0000
0000
0000
0000
0000
0000
0000
79c0
3080
3080
1900
1900
0e00
0e00
0400
0400
0000
0000
0000
0000
0000
ENDCHAR
STARTCHAR w
ENCODING 119
SWIDTH 666 0
DWIDTH 14 0
BBX 14 21 0 -5
BITMAP
0000
0000
0000
0000
0000
0000
0000
7bdc
3188
3188
1bd8
1ad0
0e70
0e70
0420
0420
0000
0000
0000
0000
0000
ENDCHAR
STARTCHAR x
ENCODING 120
SWIDTH 428 0
DWIDTH 9 0
BBX 9 21 0 -5
BITMAP
0000
0000
0000
0000
0000
0000
0000
7b80
3100
1a00
1c00
0c00
0e00
1600
2300
7780
0000
0000
0000
0000
0000
ENDCHAR
STARTCHAR y
ENCODING 121
SWIDTH 476 0
DWIDTH 10 0
BBX 10 21 0 -5
BITMAP
0000
0000
0000
0000
0000
0000
0000
79c0
3080
3080
1900
1900
0e00
0e00
0400
0400
0c00
2800
7800
3000
0000
ENDCHAR
STARTCHAR z
ENCODING 122
SWIDTH 380 0
DWIDTH 8 0
BBX 8 21 0 -5
BITMAP
00
00
00
00
00
00
00
7f
43
06
0c
18
30
60
61
7f
00
00
00
00
00
ENDCHAR
STARTCHAR braceleft
ENCODING 123
SWIDTH 380 0
DWIDTH 8 0
BBX 8 21 0 -5
BITMAP
00
00
00
0e
18
18
18
18
18
18
18
30
18
18
18
18
18
18
18
0e
00
ENDCHAR
STARTCHAR bar
ENCODING 124
SWIDTH 190 0
DWIDTH 4 0
BBX 4 21 0 -5
BITMAP
00
00
60
60
60
60
60
60
60
60
60
60
60
60
60
60
60
60
00
00
00
ENDCHAR
STARTCHAR braceright
ENCODING 125
SWIDTH 380 0
DWIDTH 8 0
BBX 8 21 0 -5
BITMAP
00
00
00
70
18
18
18
18
18
18
18
0c
18
18
18
18
18
18
18
70
00
ENDCHAR
STARTCHAR asciitilde
ENCODING 126
SWIDTH 428 0
DWIDTH 9 0
BBX 9 21 0 -5
BITMAP
0000
0000
3900
7f00
4e00
0000
0000
0000
0000
0000
0000
0000
0000
0000
0000
0000
0000
0000
0000
0000
0000
ENDCHAR
STARTCHAR C177
ENCODING -1
SWIDTH 333 0
DWIDTH 7 0
BBX 7 21 0 -5
BITMAP
00
00
3c
3c
3c
3c
3c
3c
3c
3c
3c
3c
3c
3c
3c
3c
00
00
00
00
00
ENDCHAR
STARTCHAR C200
ENCODING -1
SWIDTH 333 0
DWIDTH 7 0
BBX 7 21 0 -5
BITMAP
00
00
3c
3c
3c
3c
3c
3c
3c
3c
3c
3c
3c
3c
3c
3c
00
00
00
00
00
ENDCHAR
STARTCHAR C201
ENCODING -1
SWIDTH 333 0
DWIDTH 7 0
BBX 7 21 0 -5
BITMAP
00
00
3c
3c
3c
3c
3c
3c
3c
3c
3c
3c
3c
3c
3c
3c
00
00
00
00
00
ENDCHAR
STARTCHAR C202
ENCODING -1
SWIDTH 333 0
DWIDTH 7 0
BBX 7 21 0 -5
BITMAP
00
00
3c
3c
3c
3c
3c
3c
3c
3c
3c
3c
3c
3c
3c
3c
00
00
00
00
00
ENDCHAR
STARTCHAR C203
ENCODING -1
SWIDTH 333 0
DWIDTH 7 0
BBX 7 21 0 -5
BITMAP
00
00
3c
3c
3c
3c
3c
3c
3c
3c
3c
3c
3c
3c
3c
3c
00
00
00
00
00
ENDCHAR
STARTCHAR C204
ENCODING -1
SWIDTH 333 0
DWIDTH 7 0
BBX 7 21 0 -5
BITMAP
00
00
3c
3c
3c
3c
3c
3c
3c
3c
3c
3c
3c
3c
3c
3c
00
00
00
00
00
ENDCHAR
STARTCHAR C205
ENCODING -1
SWIDTH 333 0
DWIDTH 7 0
BBX 7 21 0 -5
BITMAP
00
00
3c
3c
3c
3c
3c
3c
3c
3c
3c
3c
3c
3c
3c
3c
00
00
00
00
00
ENDCHAR
STARTCHAR C206
ENCODING -1
SWIDTH 333 0
DWIDTH 7 0
BBX 7 21 0 -5
BITMAP
00
00
3c
3c
3c
3c
3c
3c
3c
3c
3c
3c
3c
3c
3c
3c
00
00
00
00
00
ENDCHAR
STARTCHAR C207
ENCODING -1
SWIDTH 333 0
DWIDTH 7 0
BBX 7 21 0 -5
BITMAP
00
00
3c
3c
3c
3c
3c
3c
3c
3c
3c
3c
3c
3c
3c
3c
00
00
00
00
00
ENDCHAR
STARTCHAR C210
ENCODING -1
SWIDTH 333 0
DWIDTH 7 0
BBX 7 21 0 -5
BITMAP
00
00
3c
3c
3c
3c
3c
3c
3c
3c
3c
3c
3c
3c
3c
3c
00
00
00
00
00
ENDCHAR
STARTCHAR C211
ENCODING -1
SWIDTH 333 0
DWIDTH 7 0
BBX 7 21 0 -5
BITMAP
00
00
3c
3c
3c
3c
3c
3c
3c
3c
3c
3c
3c
3c
3c
3c
00
00
00
00
00
ENDCHAR
STARTCHAR C212
ENCODING -1
SWIDTH 333 0
DWIDTH 7 0
BBX 7 21 0 -5
BITMAP
00
00
3c
3c
3c
3c
3c
3c
3c
3c
3c
3c
3c
3c
3c
3c
00
00
00
00
00
ENDCHAR
STARTCHAR C213
ENCODING -1
SWIDTH 333 0
DWIDTH 7 0
BBX 7 21 0 -5
BITMAP
00
00
3c
3c
3c
3c
3c
3c
3c
3c
3c
3c
3c
3c
3c
3c
00
00
00
00
00
ENDCHAR
STARTCHAR C214
ENCODING -1
SWIDTH 333 0
DWIDTH 7 0
BBX 7 21 0 -5
BITMAP
00
00
3c
3c
3c
3c
3c
3c
3c
3c
3c
3c
3c
3c
3c
3c
00
00
00
00
00
ENDCHAR
STARTCHAR C215
ENCODING -1
SWIDTH 333 0
DWIDTH 7 0
BBX 7 21 0 -5
BITMAP
00
00
3c
3c
3c
3c
3c
3c
3c
3c
3c
3c
3c
3c
3c
3c
00
00
00
00
00
ENDCHAR
STARTCHAR C216
ENCODING -1
SWIDTH 333 0
DWIDTH 7 0
BBX 7 21 0 -5
BITMAP
00
00
3c
3c
3c
3c
3c
3c
3c
3c
3c
3c
3c
3c
3c
3c
00
00
00
00
00
ENDCHAR
STARTCHAR C217
ENCODING -1
SWIDTH 333 0
DWIDTH 7 0
BBX 7 21 0 -5
BITMAP
00
00
3c
3c
3c
3c
3c
3c
3c
3c
3c
3c
3c
3c
3c
3c
00
00
00
00
00
ENDCHAR
STARTCHAR C220
ENCODING -1
SWIDTH 333 0
DWIDTH 7 0
BBX 7 21 0 -5
BITMAP
00
00
3c
3c
3c
3c
3c
3c
3c
3c
3c
3c
3c
3c
3c
3c
00
00
00
00
00
ENDCHAR
STARTCHAR C221
ENCODING -1
SWIDTH 190 0
DWIDTH 4 0
BBX 4 21 0 -5
BITMAP
00
00
20
40
60
60
00
00
00
00
00
00
00
00
00
00
00
00
00
00
00
ENDCHAR
STARTCHAR C222
ENCODING -1
SWIDTH 190 0
DWIDTH 4 0
BBX 4 21 0 -5
BITMAP
00
00
60
60
20
40
00
00
00
00
00
00
00
00
00
00
00
00
00
00
00
ENDCHAR
STARTCHAR C223
ENCODING -1
SWIDTH 333 0
DWIDTH 7 0
BBX 7 21 0 -5
BITMAP
00
00
3c
3c
3c
3c
3c
3c
3c
3c
3c
3c
3c
3c
3c
3c
00
00
00
00
00
ENDCHAR
STARTCHAR C224
ENCODING -1
SWIDTH 333 0
DWIDTH 7 0
BBX 7 21 0 -5
BITMAP
00
00
3c
3c
3c
3c
3c
3c
3c
3c
3c
3c
3c
3c
3c
3c
00
00
00
00
00
ENDCHAR
STARTCHAR C225
ENCODING -1
SWIDTH 333 0
DWIDTH 7 0
BBX 7 21 0 -5
BITMAP
00
00
3c
3c
3c
3c
3c
3c
3c
3c
3c
3c
3c
3c
3c
3c
00
00
00
00
00
ENDCHAR
STARTCHAR C226
ENCODING -1
SWIDTH 333 0
DWIDTH 7 0
BBX 7 21 0 -5
BITMAP
00
00
3c
3c
3c
3c
3c
3c
3c
3c
3c
3c
3c
3c
3c
3c
00
00
00
00
00
ENDCHAR
STARTCHAR C227
ENCODING -1
SWIDTH 333 0
DWIDTH 7 0
BBX 7 21 0 -5
BITMAP
00
00
3c
3c
3c
3c
3c
3c
3c
3c
3c
3c
3c
3c
3c
3c
00
00
00
00
00
ENDCHAR
STARTCHAR C230
ENCODING -1
SWIDTH 333 0
DWIDTH 7 0
BBX 7 21 0 -5
BITMAP
00
00
3c
3c
3c
3c
3c
3c
3c
3c
3c
3c
3c
3c
3c
3c
00
00
00
00
00
ENDCHAR
STARTCHAR C231
ENCODING -1
SWIDTH 333 0
DWIDTH 7 0
BBX 7 21 0 -5
BITMAP
00
00
3c
3c
3c
3c
3c
3c
3c
3c
3c
3c
3c
3c
3c
3c
00
00
00
00
00
ENDCHAR
STARTCHAR C232
ENCODING -1
SWIDTH 333 0
DWIDTH 7 0
BBX 7 21 0 -5
BITMAP
00
00
3c
3c
3c
3c
3c
3c
3c
3c
3c
3c
3c
3c
3c
3c
00
00
00
00
00
ENDCHAR
STARTCHAR C233
ENCODING -1
SWIDTH 333 0
DWIDTH 7 0
BBX 7 21 0 -5
BITMAP
00
00
3c
3c
3c
3c
3c
3c
3c
3c
3c
3c
3c
3c
3c
3c
00
00
00
00
00
ENDCHAR
STARTCHAR C234
ENCODING -1
SWIDTH 333 0
DWIDTH 7 0
BBX 7 21 0 -5
BITMAP
00
00
3c
3c
3c
3c
3c
3c
3c
3c
3c
3c
3c
3c
3c
3c
00
00
00
00
00
ENDCHAR
STARTCHAR C235
ENCODING -1
SWIDTH 333 0
DWIDTH 7 0
BBX 7 21 0 -5
BITMAP
00
00
3c
3c
3c
3c
3c
3c
3c
3c
3c
3c
3c
3c
3c
3c
00
00
00
00
00
ENDCHAR
STARTCHAR C236
ENCODING -1
SWIDTH 333 0
DWIDTH 7 0
BBX 7 21 0 -5
BITMAP
00
00
3c
3c
3c
3c
3c
3c
3c
3c
3c
3c
3c
3c
3c
3c
00
00
00
00
00
ENDCHAR
STARTCHAR C237
ENCODING -1
SWIDTH 333 0
DWIDTH 7 0
BBX 7 21 0 -5
BITMAP
00
00
3c
3c
3c
3c
3c
3c
3c
3c
3c
3c
3c
3c
3c
3c
00
00
00
00
00
ENDCHAR
STARTCHAR C240
ENCODING 160
SWIDTH 190 0
DWIDTH 4 0
BBX 4 21 0 -5
BITMAP
00
00
00
00
00
00
00
00
00
00
00
00
00
00
00
00
00
00
00
00
00
ENDCHAR
STARTCHAR exclamdown
ENCODING 161
SWIDTH 571 0
DWIDTH 12 0
BBX 12 21 0 -5
BITMAP
3180
3180
0000
7fc0
3040
3000
3000
3000
3080
3f80
3080
3000
3000
3000
3020
7fc0
0000
0000
0000
0000
0000
ENDCHAR
STARTCHAR cent
ENCODING 162
SWIDTH 428 0
DWIDTH 9 0
BBX 9 21 0 -5
BITMAP
0000
0000
0000
0000
0000
0000
0100
1e00
3300
6700
6400
6800
6800
7100
3300
5c00
0000
0000
0000
0000
0000
ENDCHAR
STARTCHAR sterling
ENCODING 184
SWIDTH 428 0
DWIDTH 9 0
BBX 9 21 0 -5
BITMAP
0000
0000
0000
3e00
7300
6300
6000
6000
fe00
3000
3000
3000
3000
7080
bf80
e700
0000
0000
0000
0000
0000
ENDCHAR
STARTCHAR currency
ENCODING 164
SWIDTH 428 0
DWIDTH 9 0
BBX 9 21 0 -5
BITMAP
0000
0000
0000
9c80
ff80
6300
c180
c180
c180
6300
ff80
9c80
0000
0000
0000
0000
0000
0000
0000
0000
0000
ENDCHAR
STARTCHAR yen
ENCODING 165
SWIDTH 428 0
DWIDTH 9 0
BBX 9 21 0 -5
BITMAP
0000
0000
0000
f380
c100
6100
6200
3200
3400
3400
ff00
1800
ff00
1800
1800
3c00
0000
0000
0000
0000
0000
ENDCHAR
STARTCHAR brokenbar
ENCODING 166
SWIDTH 190 0
DWIDTH 4 0
BBX 4 21 0 -5
BITMAP
00
00
60
60
60
60
60
60
60
00
00
00
60
60
60
60
60
00
00
00
00
ENDCHAR
STARTCHAR section
ENCODING 167
SWIDTH 428 0
DWIDTH 9 0
BBX 9 21 0 -5
BITMAP
0000
0000
1e00
3300
3300
3000
1800
3c00
6600
6700
7300
3300
1e00
0c00
0600
6600
6600
3c00
0000
0000
0000
ENDCHAR
STARTCHAR dieresis
ENCODING 168
SWIDTH 285 0
DWIDTH 6 0
BBX 6 21 0 -5
BITMAP
00
00
cc
cc
00
00
00
00
00
00
00
00
00
00
00
00
00
00
00
00
00
ENDCHAR
STARTCHAR copyright
ENCODING 169
SWIDTH 666 0
DWIDTH 14 0
BBX 14 21 0 -5
BITMAP
0000
0000
0000
0f80
3060
4010
4710
8cc8
9848
9808
9848
8c88
4710
4010
3060
0f80
0000
0000
0000
0000
0000
ENDCHAR
STARTCHAR ordfeminine
ENCODING 170
SWIDTH 238 0
DWIDTH 5 0
BBX 5 21 0 -5
BITMAP
00
00
00
60
90
30
d0
90
e8
00
f8
00
00
00
00
00
00
00
00
00
00
ENDCHAR
STARTCHAR guillemotleft
ENCODING 171
SWIDTH 428 0
DWIDTH 9 0
BBX 9 21 0 -5
BITMAP
0000
0000
0000
0000
0000
0000
0000
0000
1100
3300
6600
cc00
6600
3300
1100
0000
0000
0000
0000
0000
0000
ENDCHAR
STARTCHAR logicalnot
ENCODING 172
SWIDTH 476 0
DWIDTH 10 0
BBX 10 21 0 -5
BITMAP
0000
0000
0000
0000
0000
0000
0000
0000
0000
7f80
7f80
0180
0000
0000
0000
0000
0000
0000
0000
0000
0000
ENDCHAR
STARTCHAR hyphen
ENCODING 173
SWIDTH 285 0
DWIDTH 6 0
BBX 6 21 0 -5
BITMAP
00
00
00
00
00
00
00
00
00
78
78
00
00
00
00
00
00
00
00
00
00
ENDCHAR
STARTCHAR registered
ENCODING 174
SWIDTH 666 0
DWIDTH 14 0
BBX 14 21 0 -5
BITMAP
0000
0000
0000
0f80
3060
4010
5f90
8cc8
8cc8
8f88
8d88
8cc8
5e70
4010
3060
0f80
0000
0000
0000
0000
0000
ENDCHAR
STARTCHAR macron
ENCODING 175
SWIDTH 428 0
DWIDTH 9 0
BBX 9 21 0 -5
BITMAP
0000
0000
ff80
0000
0000
0000
0000
0000
0000
0000
0000
0000
0000
0000
0000
0000
0000
0000
0000
0000
0000
ENDCHAR
STARTCHAR degree
ENCODING 176
SWIDTH 238 0
DWIDTH 5 0
BBX 5 21 0 -5
BITMAP
00
00
70
d8
88
d8
70
00
00
00
00
00
00
00
00
00
00
00
00
00
00
ENDCHAR
STARTCHAR plusminus
ENCODING 177
SWIDTH 476 0
DWIDTH 10 0
BBX 10 21 0 -5
BITMAP
0000
0000
0000
0000
0000
0c00
0c00
0c00
7f80
7f80
0c00
0c00
0c00
0000
7f80
7f80
0000
0000
0000
0000
0000
ENDCHAR
STARTCHAR twosuperior
ENCODING 178
SWIDTH 238 0
DWIDTH 5 0
BBX 5 21 0 -5
BITMAP
00
00
70
98
18
30
60
f8
00
00
00
00
00
00
00
00
00
00
00
00
00
ENDCHAR
STARTCHAR threesuperior
ENCODING 168
SWIDTH 238 0
DWIDTH 5 0
BBX 5 21 0 -5
BITMAP
00
00
70
98
30
18
d8
70
00
00
00
00
00
00
00
00
00
00
00
00
00
ENDCHAR
STARTCHAR acute
ENCODING 180
SWIDTH 285 0
DWIDTH 6 0
BBX 6 21 0 -5
BITMAP
00
00
18
30
40
00
00
00
00
00
00
00
00
00
00
00
00
00
00
00
00
ENDCHAR
STARTCHAR mu
ENCODING 181
SWIDTH 428 0
DWIDTH 9 0
BBX 9 21 0 -5
BITMAP
0000
0000
0000
0000
0000
0000
0000
e700
6300
6300
6300
6300
6300
6300
7780
7900
6000
6000
6000
6000
0000
ENDCHAR
STARTCHAR paragraph
ENCODING 182
SWIDTH 380 0
DWIDTH 8 0
BBX 8 21 0 -5
BITMAP
00
00
00
00
7e
e4
e4
e4
64
24
24
24
24
24
24
24
24
24
00
00
00
ENDCHAR
STARTCHAR periodcentered
ENCODING 183
SWIDTH 190 0
DWIDTH 4 0
BBX 4 21 0 -5
BITMAP
00
00
00
00
00
00
00
00
60
60
00
00
00
00
00
00
00
00
00
00
00
ENDCHAR
STARTCHAR cedilla
ENCODING 184
SWIDTH 285 0
DWIDTH 6 0
BBX 6 21 0 -5
BITMAP
00
00
00
00
00
00
00
00
00
00
00
00
00
00
00
00
20
70
18
70
00
ENDCHAR
STARTCHAR onesuperior
ENCODING 185
SWIDTH 238 0
DWIDTH 5 0
BBX 5 21 0 -5
BITMAP
00
00
30
70
30
30
30
30
00
00
00
00
00
00
00
00
00
00
00
00
00
ENDCHAR
STARTCHAR ordmasculine
ENCODING 186
SWIDTH 238 0
DWIDTH 5 0
BBX 5 21 0 -5
BITMAP
00
00
00
70
d8
88
88
d8
70
00
f8
00
00
00
00
00
00
00
00
00
00
ENDCHAR
STARTCHAR guillemotright
ENCODING 187
SWIDTH 428 0
DWIDTH 9 0
BBX 9 21 0 -5
BITMAP
0000
0000
0000
0000
0000
0000
0000
0000
4400
6600
3300
1980
3300
6600
4400
0000
0000
0000
0000
0000
0000
ENDCHAR
STARTCHAR onequarter
ENCODING 188
SWIDTH 619 0
DWIDTH 13 0
BBX 13 21 0 -5
BITMAP
0000
0000
1860
3860
18c0
1980
1980
1b00
0600
0600
0ce0
1960
1b60
33f0
6060
6060
0000
0000
0000
0000
0000
ENDCHAR
STARTCHAR onehalf
ENCODING 189
SWIDTH 619 0
DWIDTH 13 0
BBX 13 21 0 -5
BITMAP
0000
0000
1860
3860
18c0
1980
1980
1b00
0600
0600
0ce0
1930
1830
3060
6080
61f0
0000
0000
0000
0000
0000
ENDCHAR
STARTCHAR threequarters
ENCODING 190
SWIDTH 619 0
DWIDTH 13 0
BBX 13 21 0 -5
BITMAP
0000
0000
7060
1860
30c0
1980
1980
7300
0600
0600
0ce0
1960
1b60
33f0
6060
6060
0000
0000
0000
0000
0000
ENDCHAR
STARTCHAR questiondown
ENCODING 191
SWIDTH 428 0
DWIDTH 9 0
BBX 9 21 0 -5
BITMAP
0000
0000
0000
0000
3600
3600
0000
1c00
3600
6300
7f00
6000
6000
6100
3300
1e00
0000
0000
0000
0000
0000
ENDCHAR
STARTCHAR cyr-A
ENCODING 192
SWIDTH 571 0
DWIDTH 12 0
BBX 12 21 0 -5
BITMAP
0000
0000
0000
0400
0600
0e00
0b00
0b00
1300
1180
2180
3fc0
20c0
40c0
4060
e0f0
0000
0000
0000
0000
0000
ENDCHAR
STARTCHAR cyr-Be
ENCODING 193
SWIDTH 619 0
DWIDTH 13 0
BBX 13 21 0 -5
BITMAP
0000
0000
0000
7ff0
3030
3010
3000
3000
3fc0
3060
3030
3030
3030
3030
3060
7fc0
0000
0000
0000
0000
0000
ENDCHAR
STARTCHAR cyr-Ve
ENCODING 194
SWIDTH 619 0
DWIDTH 13 0
BBX 13 21 0 -5
BITMAP
0000
0000
0000
7f00
30c0
3060
3060
3060
30c0
3fc0
3060
3030
3030
3030
3060
7f80
0000
0000
0000
0000
0000
ENDCHAR
STARTCHAR cyr-Ghe
ENCODING 195
SWIDTH 571 0
DWIDTH 12 0
BBX 12 21 0 -5
BITMAP
0000
0000
0000
7fe0
3060
3020
3000
3000
3000
3000
3000
3000
3000
3000
3000
7800
0000
0000
0000
0000
0000
ENDCHAR
STARTCHAR cyr-De
ENCODING 196
SWIDTH 619 0
DWIDTH 13 0
BBX 13 21 0 -5
BITMAP
0000
0000
0000
3ff0
1060
1060
1060
1060
1060
1060
1060
1060
1060
1060
2060
7ff0
4010
4010
0000
0000
0000
ENDCHAR
STARTCHAR cyr-Ie
ENCODING 197
SWIDTH 571 0
DWIDTH 12 0
BBX 12 21 0 -5
BITMAP
0000
0000
0000
7fc0
3040
3000
3000
3000
3080
3f80
3080
3000
3000
3000
3020
7fe0
0000
0000
0000
0000
0000
ENDCHAR
STARTCHAR cyr-Zhe
ENCODING 198
SWIDTH 809 0
DWIDTH 17 0
BBX 17 21 0 -5
BITMAP
000000
000000
000000
71e380
68c580
08c400
04c800
04c800
03f000
0ccc00
18c600
18c600
30c300
30c300
30c300
79e780
000000
000000
000000
000000
000000
ENDCHAR
STARTCHAR cyr-Ze
ENCODING 199
SWIDTH 571 0
DWIDTH 12 0
BBX 12 21 0 -5
BITMAP
0000
0000
0000
1e00
6180
40c0
00c0
00c0
0180
0f80
00c0
0060
0060
4060
60c0
1f00
0000
0000
0000
0000
0000
ENDCHAR
STARTCHAR cyr-I
ENCODING 200
SWIDTH 666 0
DWIDTH 14 0
BBX 14 21 0 -5
BITMAP
0000
0000
0000
7878
3070
30b0
30b0
3130
3130
3230
3230
3430
3430
3830
3830
7878
0000
0000
0000
0000
0000
ENDCHAR
STARTCHAR cyr-I-short
ENCODING 201
SWIDTH 666 0
DWIDTH 14 0
BBX 14 21 0 -5
BITMAP
0cc0
0780
0000
7878
3070
30b0
30b0
3130
3130
3230
3230
3430
3430
3830
3830
7878
0000
0000
0000
0000
0000
ENDCHAR
STARTCHAR cyr-Ka
ENCODING 202
SWIDTH 571 0
DWIDTH 12 0
BBX 12 21 0 -5
BITMAP
0000
0000
0000
78e0
3160
3100
3200
3200
3c00
3300
3180
3180
30c0
30c0
30c0
79e0
0000
0000
0000
0000
0000
ENDCHAR
STARTCHAR cyr-El
ENCODING 203
SWIDTH 619 0
DWIDTH 13 0
BBX 13 21 0 -5
BITMAP
0000
0000
0000
3ff0
1060
1060
1060
1060
1060
1060
1060
1060
1060
1060
d060
e0f0
0000
0000
0000
0000
0000
ENDCHAR
STARTCHAR cyr-Em
ENCODING 204
SWIDTH 761 0
DWIDTH 16 0
BBX 16 21 0 -5
BITMAP
0000
0000
0000
781e
381c
3c3c
2c2c
2c2c
264c
264c
264c
238c
238c
238c
210c
711e
0000
0000
0000
0000
0000
ENDCHAR
STARTCHAR cyr-En
ENCODING 205
SWIDTH 666 0
DWIDTH 14 0
BBX 14 21 0 -5
BITMAP
0000
0000
0000
7878
3030
3030
3030
3030
3030
3ff0
3030
3030
3030
3030
3030
7878
0000
0000
0000
0000
0000
ENDCHAR
STARTCHAR cyr-O
ENCODING 206
SWIDTH 666 0
DWIDTH 14 0
BBX 14 21 0 -5
BITMAP
0000
0000
0000
0780
1860
3030
3030
6018
6018
6018
6018
6018
3030
3030
1860
0780
0000
0000
0000
0000
0000
ENDCHAR
STARTCHAR cyr-Pe
ENCODING 207
SWIDTH 666 0
DWIDTH 14 0
BBX 14 21 0 -5
BITMAP
0000
0000
0000
7ff8
3030
3030
3030
3030
3030
3030
3030
3030
3030
3030
3030
7878
0000
0000
0000
0000
0000
ENDCHAR
STARTCHAR cyr-Er
ENCODING 208
SWIDTH 619 0
DWIDTH 13 0
BBX 13 21 0 -5
BITMAP
0000
0000
0000
7f80
3060
3030
3030
3030
3030
3060
3f80
3000
3000
3000
3000
7800
0000
0000
0000
0000
0000
ENDCHAR
STARTCHAR cyr-Es
ENCODING 209
SWIDTH 619 0
DWIDTH 13 0
BBX 13 21 0 -5
BITMAP
0000
0000
0000
07a0
1c60
3020
3000
6000
6000
6000
6000
6000
3000
3010
1c60
0780
0000
0000
0000
0000
0000
ENDCHAR
STARTCHAR cyr-Te
ENCODING 210
SWIDTH 571 0
DWIDTH 12 0
BBX 12 21 0 -5
BITMAP
0000
0000
0000
7fe0
4620
0600
0600
0600
0600
0600
0600
0600
0600
0600
0600
0f00
0000
0000
0000
0000
0000
ENDCHAR
STARTCHAR cyr-U
ENCODING 211
SWIDTH 571 0
DWIDTH 12 0
BBX 12 21 0 -5
BITMAP
0000
0000
0000
f070
6020
3040
3040
1880
0c80
0d00
0700
0200
0200
0400
7400
3800
0000
0000
0000
0000
0000
ENDCHAR
STARTCHAR cyr-Ef
ENCODING 212
SWIDTH 761 0
DWIDTH 16 0
BBX 16 21 0 -5
BITMAP
0000
0000
0000
07e0
1998
318c
318c
6186
6186
6186
318c
318c
1998
07e0
0180
03c0
0000
0000
0000
0000
0000
ENDCHAR
STARTCHAR cyr-Kha
ENCODING 213
SWIDTH 666 0
DWIDTH 14 0
BBX 14 21 0 -5
BITMAP
0000
0000
0000
7c78
1830
0c20
0e40
0680
0380
0380
0580
04c0
08e0
1060
3030
7878
0000
0000
0000
0000
0000
ENDCHAR
STARTCHAR cyr-Tse
ENCODING 214
SWIDTH 666 0
DWIDTH 14 0
BBX 14 21 0 -5
BITMAP
0000
0000
0000
7878
3030
3030
3030
3030
3030
3030
3030
3030
3030
3030
3030
7ff8
0008
0008
0000
0000
0000
ENDCHAR
STARTCHAR cyr-Che
ENCODING 215
SWIDTH 666 0
DWIDTH 14 0
BBX 14 21 0 -5
BITMAP
0000
0000
0000
7878
3030
3030
3030
3030
3030
3030
0ff0
0030
0030
0030
0030
0078
0000
0000
0000
0000
0000
ENDCHAR
STARTCHAR cyr-Sha
ENCODING 216
SWIDTH 809 0
DWIDTH 17 0
BBX 17 21 0 -5
BITMAP
000000
000000
000000
79e780
30c300
30c300
30c300
30c300
30c300
30c300
30c300
30c300
30c300
30c300
30c300
7fff80
000000
000000
000000
000000
000000
ENDCHAR
STARTCHAR cyr-Shcha
ENCODING 217
SWIDTH 809 0
DWIDTH 17 0
BBX 17 21 0 -5
BITMAP
000000
000000
000000
79e780
30c300
30c300
30c300
30c300
30c300
30c300
30c300
30c300
30c300
30c300
30c300
7fff80
000080
000080
000000
000000
000000
ENDCHAR
STARTCHAR cyr-Ier
ENCODING 218
SWIDTH 714 0
DWIDTH 15 0
BBX 15 21 0 -5
BITMAP
0000
0000
0000
7e00
4c00
4c00
0c00
0c00
0ff0
0c18
0c0c
0c0c
0c0c
0c0c
0c18
1ff0
0000
0000
0000
0000
0000
ENDCHAR
STARTCHAR cyr-Iery
ENCODING 219
SWIDTH 809 0
DWIDTH 17 0
BBX 17 21 0 -5
BITMAP
000000
000000
000000
780f00
300600
300600
300600
300600
3fc600
306600
303600
303600
303600
303600
306600
7fcf00
000000
000000
000000
000000
000000
ENDCHAR
STARTCHAR cyr-Ierik
ENCODING 220
SWIDTH 619 0
DWIDTH 13 0
BBX 13 21 0 -5
BITMAP
0000
0000
0000
7800
3000
3000
3000
3000
3fc0
3060
3030
3030
3030
3030
3060
7fc0
0000
0000
0000
0000
0000
ENDCHAR
STARTCHAR cyr-E-rev
ENCODING 221
SWIDTH 571 0
DWIDTH 12 0
BBX 12 21 0 -5
BITMAP
0000
0000
0000
5f80
60c0
4060
0060
0060
0860
0fe0
0860
0060
0060
4060
60c0
5f80
0000
0000
0000
0000
0000
ENDCHAR
STARTCHAR cyr-Yu
ENCODING 222
SWIDTH 809 0
DWIDTH 17 0
BBX 17 21 0 -5
BITMAP
000000
000000
000000
783800
30c600
318300
318300
330180
330180
3f0180
330180
330180
318300
318300
30c600
787800
000000
000000
000000
000000
000000
ENDCHAR
STARTCHAR cyr-Ya
ENCODING 223
SWIDTH 714 0
DWIDTH 15 0
BBX 15 21 0 -5
BITMAP
0000
0000
0000
07fc
0c18
1818
1818
1818
0c18
07f8
0318
0618
0c18
1818
3018
f03c
0000
0000
0000
0000
0000
ENDCHAR
STARTCHAR cyr-a
ENCODING 224
SWIDTH 428 0
DWIDTH 9 0
BBX 9 21 0 -5
BITMAP
0000
0000
0000
0000
0000
0000
0000
3e00
6300
6300
0f00
3300
6300
6300
6700
3d80
0000
0000
0000
0000
0000
ENDCHAR
STARTCHAR cyr-be
ENCODING 225
SWIDTH 428 0
DWIDTH 9 0
BBX 9 21 0 -5
BITMAP
0000
0080
1f00
2000
6000
6000
6000
6e00
7100
6080
6080
6080
6080
6080
7100
3e00
0000
0000
0000
0000
0000
ENDCHAR
STARTCHAR cyr-ve
ENCODING 226
SWIDTH 428 0
DWIDTH 9 0
BBX 9 21 0 -5
BITMAP
0000
0000
0000
0000
0000
0000
0000
7f00
3080
3080
3080
3f00
3080
3080
3080
7f00
0000
0000
0000
0000
0000
ENDCHAR
STARTCHAR cyr-ghe
ENCODING 227
SWIDTH 380 0
DWIDTH 8 0
BBX 8 21 0 -5
BITMAP
00
00
00
00
00
00
00
7f
31
30
30
30
30
30
30
78
00
00
00
00
00
ENDCHAR
STARTCHAR cyr-de
ENCODING 228
SWIDTH 476 0
DWIDTH 10 0
BBX 10 21 0 -5
BITMAP
0000
0000
0000
0000
0000
0000
0000
3fc0
1180
1180
1180
1180
1180
1180
2180
7fc0
4040
4040
0000
0000
0000
ENDCHAR
STARTCHAR cyr-ie
ENCODING 229
SWIDTH 380 0
DWIDTH 8 0
BBX 8 21 0 -5
BITMAP
00
00
00
00
00
00
00
1c
36
63
7f
60
60
61
33
1e
00
00
00
00
00
ENDCHAR
STARTCHAR cyr-zhe
ENCODING 230
SWIDTH 714 0
DWIDTH 15 0
BBX 15 21 0 -5
BITMAP
0000
0000
0000
0000
0000
0000
0000
73ce
6996
0990
05a0
07e0
0db0
1998
318c
7bde
0000
0000
0000
0000
0000
ENDCHAR
STARTCHAR cyr-z
ENCODING 231
SWIDTH 380 0
DWIDTH 8 0
BBX 8 21 0 -5
BITMAP
00
00
00
00
00
00
00
3e
43
43
03
1e
03
43
43
3e
00
00
00
00
00
ENDCHAR
STARTCHAR cyr-i
ENCODING 232
SWIDTH 523 0
DWIDTH 11 0
BBX 11 21 0 -5
BITMAP
0000
0000
0000
0000
0000
0000
0000
78e0
31c0
32c0
32c0
34c0
34c0
38c0
30c0
79e0
0000
0000
0000
0000
0000
ENDCHAR
STARTCHAR cyr-i-short
ENCODING 233
SWIDTH 523 0
DWIDTH 11 0
BBX 11 21 0 -5
BITMAP
0000
0000
0000
0000
0000
0d80
0700
78e0
31c0
32c0
32c0
34c0
34c0
38c0
30c0
79e0
0000
0000
0000
0000
0000
ENDCHAR
STARTCHAR cyr-ka
ENCODING 234
SWIDTH 476 0
DWIDTH 10 0
BBX 10 21 0 -5
BITMAP
0000
0000
0000
0000
0000
0000
0000
79c0
32c0
3200
3400
3c00
3600
3300
3180
79c0
0000
0000
0000
0000
0000
ENDCHAR
STARTCHAR cyr-el
ENCODING 235
SWIDTH 523 0
DWIDTH 11 0
BBX 11 21 0 -5
BITMAP
0000
0000
0000
0000
0000
0000
0000
1fe0
08c0
08c0
08c0
08c0
08c0
08c0
68c0
71e0
0000
0000
0000
0000
0000
ENDCHAR
STARTCHAR cyr-em
ENCODING 236
SWIDTH 571 0
DWIDTH 12 0
BBX 12 21 0 -5
BITMAP
0000
0000
0000
0000
0000
0000
0000
7070
38e0
38e0
2d60
2d60
2660
2660
2060
70f0
0000
0000
0000
0000
0000
ENDCHAR
STARTCHAR cyr-en
ENCODING 237
SWIDTH 523 0
DWIDTH 11 0
BBX 11 21 0 -5
BITMAP
0000
0000
0000
0000
0000
0000
0000
79e0
30c0
30c0
30c0
3fc0
30c0
30c0
30c0
79e0
0000
0000
0000
0000
0000
ENDCHAR
STARTCHAR cyr-o
ENCODING 238
SWIDTH 428 0
DWIDTH 9 0
BBX 9 21 0 -5
BITMAP
0000
0000
0000
0000
0000
0000
0000
1e00
2300
6180
6180
6180
6180
6180
3100
1e00
0000
0000
0000
0000
0000
ENDCHAR
STARTCHAR cyr-pe
ENCODING 239
SWIDTH 523 0
DWIDTH 11 0
BBX 11 21 0 -5
BITMAP
0000
0000
0000
0000
0000
0000
0000
7fe0
30c0
30c0
30c0
30c0
30c0
30c0
30c0
79e0
0000
0000
0000
0000
0000
ENDCHAR
STARTCHAR cyr-er
ENCODING 240
SWIDTH 476 0
DWIDTH 10 0
BBX 10 21 0 -5
BITMAP
0000
0000
0000
0000
0000
0000
0000
7f00
3180
30c0
30c0
30c0
30c0
30c0
3180
3f00
3000
3000
3000
7800
0000
ENDCHAR
STARTCHAR cyr-es
ENCODING 241
SWIDTH 380 0
DWIDTH 8 0
BBX 8 21 0 -5
BITMAP
00
00
00
00
00
00
00
1e
33
63
60
60
60
61
33
1e
00
00
00
00
00
ENDCHAR
STARTCHAR cyr-te
ENCODING 242
SWIDTH 428 0
DWIDTH 9 0
BBX 9 21 0 -5
BITMAP
0000
0000
0000
0000
0000
0000
0000
7f80
4c80
4c80
0c00
0c00
0c00
0c00
0c00
1e00
0000
0000
0000
0000
0000
ENDCHAR
STARTCHAR cyr-u
ENCODING 243
SWIDTH 476 0
DWIDTH 10 0
BBX 10 21 0 -5
BITMAP
0000
0000
0000
0000
0000
0000
0000
79c0
3080
3080
1900
1900
0e00
0e00
0400
0400
0c00
2800
7800
3000
0000
ENDCHAR
STARTCHAR cyr-ef
ENCODING 244
SWIDTH 523 0
DWIDTH 11 0
BBX 11 21 0 -5
BITMAP
0000
0000
0000
0000
0000
0000
0000
1f80
2640
6660
6660
6660
6660
6660
2640
1f80
0600
0600
0600
0600
0f00
ENDCHAR
STARTCHAR cyr-kha
ENCODING 245
SWIDTH 428 0
DWIDTH 9 0
BBX 9 21 0 -5
BITMAP
0000
0000
0000
0000
0000
0000
0000
7b80
3100
1a00
1c00
0c00
0e00
1600
2300
7780
0000
0000
0000
0000
0000
ENDCHAR
STARTCHAR cyr-tse
ENCODING 246
SWIDTH 523 0
DWIDTH 11 0
BBX 11 21 0 -5
BITMAP
0000
0000
0000
0000
0000
0000
0000
79e0
30c0
30c0
30c0
30c0
30c0
30c0
30c0
7fe0
0020
0020
0000
0000
0000
ENDCHAR
STARTCHAR cyr-che
ENCODING 247
SWIDTH 523 0
DWIDTH 11 0
BBX 11 21 0 -5
BITMAP
0000
0000
0000
0000
0000
0000
0000
79e0
30c0
30c0
30c0
1fc0
00c0
00c0
00c0
01e0
0000
0000
0000
0000
0000
ENDCHAR
STARTCHAR cyr-sha
ENCODING 248
SWIDTH 714 0
DWIDTH 15 0
BBX 15 21 0 -5
BITMAP
0000
0000
0000
0000
0000
0000
0000
73de
318c
318c
318c
318c
318c
318c
318c
7ffe
0000
0000
0000
0000
0000
ENDCHAR
STARTCHAR cyr-shcha
ENCODING 249
SWIDTH 714 0
DWIDTH 15 0
BBX 15 21 0 -5
BITMAP
0000
0000
0000
0000
0000
0000
0000
73de
318c
318c
318c
318c
318c
318c
318c
7ffe
0002
0002
0000
0000
0000
ENDCHAR
STARTCHAR cyr-ier
ENCODING 250
SWIDTH 523 0
DWIDTH 11 0
BBX 11 21 0 -5
BITMAP
0000
0000
0000
0000
0000
0000
0000
7e00
4c00
4c00
0fc0
0c60
0c60
0c60
0c60
1fc0
0000
0000
0000
0000
0000
ENDCHAR
STARTCHAR cyr-iery
ENCODING 251
SWIDTH 666 0
DWIDTH 14 0
BBX 14 21 0 -5
BITMAP
0000
0000
0000
0000
0000
0000
0000
783c
3018
3018
3f18
3198
3198
3198
3198
7f3c
0000
0000
0000
0000
0000
ENDCHAR
STARTCHAR cyr-ierik
ENCODING 252
SWIDTH 428 0
DWIDTH 9 0
BBX 9 21 0 -5
BITMAP
0000
0000
0000
0000
0000
0000
0000
7800
3000
3000
3f00
3180
3180
3180
3180
7f00
0000
0000
0000
0000
0000
ENDCHAR
STARTCHAR cyr-e-rev
ENCODING 253
SWIDTH 380 0
DWIDTH 8 0
BBX 8 21 0 -5
BITMAP
00
00
00
00
00
00
00
3e
43
43
03
1f
03
43
43
3e
00
00
00
00
00
ENDCHAR
STARTCHAR cyr-yu
ENCODING 254
SWIDTH 666 0
DWIDTH 14 0
BBX 14 21 0 -5
BITMAP
0000
0000
0000
0000
0000
0000
0000
78f0
3118
330c
330c
3f0c
330c
330c
3188
78f0
0000
0000
0000
0000
0000
ENDCHAR
STARTCHAR cyr-ya
ENCODING 255
SWIDTH 476 0
DWIDTH 10 0
BBX 10 21 0 -5
BITMAP
0000
0000
0000
0000
0000
0000
0000
3fc0
6180
6180
6180
3f80
1980
3180
6180
c3c0
0000
0000
0000
0000
0000
ENDCHAR
ENDFONT
